# xmcd CD database file
#
# Track frame offsets:
#	150
#	9489
#	21156
#	33423
#	46176
#	58724
#	69724
#	81941
#	95238
#	106564
#	118893
#	130531
#	142133
#	153180
#	164721
#	177502
#	189357
#	202047
#	213796
#	226028
#	238711
#	251246
#
# Disc length: 3515 seconds
#
# Revision: 0
# Processed by: cddbd v1.5.1PL2 Copyright (c) Steve Scherf et al.
# Submitted via: CDex 1.50
#
DISCID=340db916
DTITLE=Hank Williams - Settin' the Woods on Fire [CD3]
DYEAR=2005
DGENRE=Country
TTITLE0=Pan American
TTITLE1=Dear John
TTITLE2=Half as Much
TTITLE3=When God Comes and Gathers His Jewels
TTITLE4=I'm So Lonesome I Could Cry
TTITLE5=My Heart Would Know
TTITLE6=Lost Highway
TTITLE7=I've Been Done That Road Before
TTITLE8=Nobody's Lonesome for Me
TTITLE9=Cold, Cold Heart
TTITLE10=Kaw-Lica
TTITLE11=I'm Satisfied with You
TTITLE12=(I Heard That) Lonesome Whistle
TTITLE13=My Son Calls Another Man Daddy
TTITLE14=Please Make Up Your Mind
TTITLE15=Why Should We Try Anymore
TTITLE16=There'll Be No Teardrops Tonight
TTITLE17=You Win Again
TTITLE18=Your Cheatin' Heart
TTITLE19=I Just Don't Like This Kind of Living
TTITLE20=Six More Miles to the Graveyard
TTITLE21=I Saw the Light
EXTD=YEAR: 2005
EXTT0=
EXTT1=
EXTT2=
EXTT3=
EXTT4=
EXTT5=
EXTT6=
EXTT7=
EXTT8=
EXTT9=
EXTT10=
EXTT11=
EXTT12=
EXTT13=
EXTT14=
EXTT15=
EXTT16=
EXTT17=
EXTT18=
EXTT19=
EXTT20=
EXTT21=
PLAYORDER=
